<svg id="Calque_1" data-name="Calque 1" xmlns="http://www.w3.org/2000/svg" viewBox="0 0 449.69 128.83"><defs><style>.cls-1{fill:#1d1d1b;}</style></defs><path class="cls-1" d="M82.68,314.08c0,4.56,0,9.12,0,13.68.1,11.67,8.37,20.29,20.89,21.58,3.83.39,7.71.35,11.56.39,5.61.06,11.22,0,16.82,0,3.08,0,3.53.44,3.6,3.27.05,2.05.07,4.11,0,6.17-.1,2.34-.59,2.79-3.18,2.81-6.28.05-12.57,0-18.85,0-4,0-7.92.18-11.83-.19-10-.94-19-4.13-26.17-10.83a29.54,29.54,0,0,1-9.84-21.7q-.3-15,0-30.05c.27-13.48,7.1-23.3,20.11-29.34a46.19,46.19,0,0,1,18.39-4.3c9.17-.24,18.34-.37,27.52-.49,3.39-.05,3.83.41,3.9,3.55q0,2.55,0,5.1c0,3.48-.5,3.92-4.16,3.93-6.87,0-13.73,0-20.59,0a43.34,43.34,0,0,0-12,1.54c-9.92,2.93-16,10.4-16.12,20.05-.08,4.92,0,9.84,0,14.76Z" transform="translate(-65.51 -233.58)"/><path class="cls-1" d="M306.9,286.27c-1.46.51-2.45.79-3.36,1.19-5.58,2.46-11.13,5-16.7,7.42-.93.4-1.9.73-3.24,1.24a22,22,0,0,1-.44-2.6c-.05-2.24.11-4.48-.05-6.7s.77-3.29,2.79-4.17c6.72-2.91,13.39-5.95,20.09-8.93q8.08-3.6,16.19-7.16c.59-.26,1.22-.44,2.27-.81.07,1.23.19,2.25.19,3.26q0,14.61-.05,29.22,0,30.16,0,60.32c0,3.84,0,3.84-4.11,3.84-3.77,0-7.54,0-11.3,0-1.94,0-2.16-.27-2.27-2,0-.71,0-1.43,0-2.14v-72Z" transform="translate(-65.51 -233.58)"/><path class="cls-1" d="M238.67,314.06c0,4.56,0,9.12,0,13.67.07,15.8-9.85,26.82-23.56,31.53a83.3,83.3,0,0,1-9.44,2.46c-2.53.56-4.12-.59-4.26-3s0-4.82,0-7.24a2.15,2.15,0,0,1,2-2.28c.74-.18,1.48-.37,2.22-.59,9.67-2.92,15.78-10.16,16-19.58.21-10,.23-20,0-30-.22-9.16-6-16.1-15.27-19.22-4.82-1.61-4.88-1.69-4.88-6.56,0-1.61-.07-3.22,0-4.82s.85-2.31,2.61-2.15a42.5,42.5,0,0,1,6.23,1.08c9.24,2.3,17.05,6.62,22.52,14.09a30.12,30.12,0,0,1,5.87,17.4c.13,5.09,0,10.18,0,15.27Z" transform="translate(-65.51 -233.58)"/><path class="cls-1" d="M151.42,313.89c.17-5.79.13-11.43.55-17,.75-10.28,5.92-18.33,15.07-24.16a47.31,47.31,0,0,1,18-6.42c2.75-.45,3.82.36,3.91,2.9.08,2.23,0,4.47,0,6.7,0,1.67-.88,2.62-2.52,3.18a45.65,45.65,0,0,0-6.13,2.35c-6.83,3.52-10.92,9-11.15,16.17-.36,10.8-.51,21.63,0,32.41.42,9.43,6.55,15.95,16.23,18.74.56.16,1.12.29,1.67.45a2.21,2.21,0,0,1,1.87,2.12c0,2.68.12,5.36,0,8-.1,1.81-1.38,2.78-3.34,2.5C166,359.08,153.2,347.27,152,331.41,151.53,325.54,151.59,319.63,151.42,313.89Z" transform="translate(-65.51 -233.58)"/><path class="cls-1" d="M253,265.45c1.45.82,2.27,1.26,3,1.74,3.93,2.44,7.78,5,11.8,7.29a5,5,0,0,1,2.93,5c-.1,14.92-.05,29.83-.05,44.75V358c0,.8,0,1.61,0,2.41,0,1.28-.54,2-2.06,2-4.54,0-9.08,0-13.61,0-1.49,0-2.09-.67-2-2,0-.63,0-1.25,0-1.88V265.45Z" transform="translate(-65.51 -233.58)"/><path class="cls-1" d="M427.07,361.94c-2.51,0-5-.11-7.53,0a10.06,10.06,0,0,1-8.86-4.17c-1.93-2.45-3.77-5-5.64-7.46L394.8,336.68a18.68,18.68,0,0,1-1.27-1.79,3.2,3.2,0,0,1,.18-4c2.78-3.54,5.44-7.16,8.2-10.72,1-1.33,1.78-1.35,3-.23a10.9,10.9,0,0,1,1.12,1.23l31,36.4a11.28,11.28,0,0,1,1.18,1.52c1.06,1.77.53,2.75-1.64,2.8-3.18.07-6.37,0-9.56,0Z" transform="translate(-65.51 -233.58)"/><path class="cls-1" d="M514.19,239.14l-22-5.52a1.33,1.33,0,0,0-1.59,1.72L497.8,257a1.35,1.35,0,0,0,2.26.48l14.79-16.09A1.35,1.35,0,0,0,514.19,239.14Z" transform="translate(-65.51 -233.58)"/><path class="cls-1" d="M341.32,265.17a28.62,28.62,0,0,1,3.28-.5c3.08-.05,6.17,0,9.25,0a8.16,8.16,0,0,1,6.68,3.08c7.33,8.75,14.79,17.4,22.18,26.09,2.38,2.79,2.33,3.64-.24,6.19-2.11,2.09-4.21,4.17-6.34,6.24s-2.65,2-4.4-.31q-7.82-10.31-15.54-20.65-6.62-8.79-13.21-17.59C342.5,267.07,342.11,266.37,341.32,265.17Z" transform="translate(-65.51 -233.58)"/><path class="cls-1" d="M363.82,360.58a3.13,3.13,0,0,1-2.54,1.3l-19.82.21s-2.63.32-.93-2.2,59.18-96.29,149-114.27c0,0,2.43,1.08,0,2.16S430.6,264.57,364.77,359.2l-.94,1.36Z" transform="translate(-65.51 -233.58)"/></svg>