<svg id="Calque_1" data-name="Calque 1" xmlns="http://www.w3.org/2000/svg"
    viewBox="0 0 430.08 429.19">
    <defs>
        <style>.cls-1{fill:#ff6a00;}.cls-2{fill:#3957db;}</style>
    </defs>
    <path class="cls-1"
        d="M443.19,415.46c-12.76,2.06-24.75,6.67-37.91,7.62a119.08,119.08,0,0,1-40.48-3.76c-25.88-7.21-49.29-25.16-60-49.82-8-18.37-8.58-39.34-4.63-59,4.63-23,15.52-44.91,32-61.65,19.44-19.79,45.87-31.73,73.07-37.2,29.89-6,61.57-4.55,90,6.37a143.22,143.22,0,0,1,66.14,52c17.38,25.2,23.85,53.54,25.8,83.6,2.38,36.71-10,68.42-30.85,97.66-54,75.65-153.22,102.57-242.2,100.23q-12.6-.33-25.15-1.51c-1.72-.17-3.59-.4-4.47-2.27a4.34,4.34,0,0,1,.28-4c1.42-2.41,4.08-3.37,6.6-4.28a291.44,291.44,0,0,0,87.19-49.92,317.29,317.29,0,0,0,35.2-34.65C423.72,443.68,439.38,430.4,443.19,415.46Z"
        transform="translate(-184.9 -187.8)" />
    <path class="cls-2"
        d="M434.13,190.63C395.29,192,356.31,205.1,327,230.6c-48.07,41.77-68,127.75-19,176.92,11.23,11.27,25.09,19.37,39.87,25.06s30.79,7,45.8,11.89c-23.4,35.45-61.55,58.75-101.2,74-8.71,3.35-18.11,6.77-23.52,14.37-7,9.87-4,25.35,6.16,31.89,5.95,3.81,13.29,4.6,20.34,5.1,88.09,6.27,188.88-14.95,252.9-79.53A231.87,231.87,0,0,0,592,428.18c11.64-24,15-49.37,14.21-75.6-.07-2.2-.15-4.41-.31-6.61s-.43-4.11-.66-6.27c22.16,65.95,10.14,167.38-74.08,232.72-81.2,63-197.46,58.74-273.63-9.66-59.75-53.67-88.17-141.57-64-219.4,15.77-50.87,47.84-95.52,93.44-123.73A215.35,215.35,0,0,1,434.13,190.63Z"
        transform="translate(-184.9 -187.8)" />
</svg>